<?xml version="1.0" encoding="UTF-8"?>
<svg xmlns="http://www.w3.org/2000/svg" width="152" height="38" viewBox="0 0 152 38" fill="none">
  <g clip-path="url(#clip0_293_524)">
    <path d="M76.5357 23.7025V23.6028C76.5357 15.8726 82.0867 9.50488 90.0215 9.50488C99.1349 9.50488 103.306 16.5306 103.306 24.2077C103.306 24.8126 103.253 25.5238 103.206 26.2283H84.2161C84.9794 29.7179 87.4235 31.5325 90.8853 31.5325C93.4834 31.5325 95.365 30.7216 97.501 28.7541L101.927 32.6425C99.3826 35.7732 95.7132 37.6941 90.7782 37.6941C82.5823 37.6941 76.5223 31.9845 76.5223 23.6959L76.5357 23.7025ZM95.7734 21.4293C95.3181 17.9929 93.2825 15.6665 90.0215 15.6665C86.7606 15.6665 84.725 17.9397 84.1156 21.4293H95.7734Z" fill="#C41230"></path>
    <path d="M19.9877 27.5645C18.8159 29.7779 16.6597 31.0806 14.2559 31.0806C10.64 31.0806 7.64018 28.0962 7.64018 23.6029V23.5032C7.64018 19.0033 10.64 16.0255 14.2559 16.0255C16.6196 16.0255 18.7422 17.3084 19.9274 19.4553C20.6037 16.7035 21.9697 14.2242 23.8379 12.2103C21.6684 10.4355 18.9833 9.51163 16.2379 9.51163C12.2136 9.51163 9.6222 11.3794 7.73392 13.9052V0.206055H0V37.0894H7.73392V33.5533C9.56863 35.7268 12.1131 37.5945 16.2379 37.5945C19.0837 37.5945 21.8358 36.6308 24.0187 34.7829C22.1103 32.7822 20.7041 30.3096 19.9877 27.5578V27.5645Z" fill="#C41230"></path>
    <path d="M65.1726 9.50488C61.1349 9.50488 58.7779 11.5787 56.9431 13.8519V10.01H48.9749V12.835C51.372 15.6997 52.8117 19.3821 52.8117 23.4034C52.8117 27.4248 51.3653 31.1005 48.9749 33.9653V37.0959H56.9431V21.9877C56.9431 18.3518 58.885 16.4774 61.925 16.4774C64.965 16.4774 66.7461 18.3452 66.7461 21.9877V37.0959H74.7144V19.5616C74.7144 13.3468 71.199 9.50488 65.1726 9.50488Z" fill="#C41230"></path>
    <path d="M44.9907 34.7297C45.0041 31.9647 42.9484 30.0703 42.9484 30.0703C42.9484 30.0703 40.6182 33.7593 38.5826 35.2748C37.4442 36.1189 35.1676 37.0296 33.2391 37.7142C34.1632 37.8936 35.114 37.9933 36.0916 37.9933C39.4397 37.9933 42.5198 36.87 44.9773 34.989C44.9773 34.9026 44.984 34.8162 44.984 34.7297H44.9907Z" fill="#C41230"></path>
    <path d="M44.5353 11.7783C44.7094 12.2967 44.7831 12.8617 44.7027 13.4533C44.4349 15.3809 42.7475 16.7368 40.9329 16.4909C39.1182 16.2383 37.8728 14.4769 38.1406 12.5493C38.3281 11.22 39.1852 10.1698 40.2967 9.71777C38.9642 9.31896 37.5581 9.09961 36.0983 9.09961C28.0564 9.09961 21.5411 15.567 21.5411 23.5498C21.5411 29.5918 25.2842 34.7697 30.5875 36.9299C34.0694 34.8096 37.3304 29.9242 38.6495 26.9464C40.0758 23.7293 38.8571 20.4857 38.6495 20.366C38.4419 20.2464 35.5626 21.496 34.7524 22.3069C33.9422 23.1178 33.4333 24.4937 33.1052 24.4339C32.1544 24.2544 31.391 19.7678 36.1251 17.8203C40.8592 15.8661 42.3859 17.1888 44.4349 19.1297C46.0352 20.6452 48.4056 19.688 49.9524 19.1164C48.9815 16.1253 47.053 13.5663 44.5286 11.7849L44.5353 11.7783Z" fill="#C41230"></path>
    <path d="M50.4211 20.9647C50.0127 21.3568 49.4971 21.7623 48.8944 22.1345C46.4571 23.6433 44.1871 21.5762 44.3746 22.2475C44.5621 22.9188 44.2273 25.87 44.2273 25.87C44.2273 25.87 46.678 28.9741 47.7025 31.2806C47.7963 31.4933 47.8699 31.7192 47.9369 31.9452C49.6444 29.579 50.6555 26.6743 50.6555 23.5436C50.6555 22.6596 50.5684 21.8022 50.4211 20.958V20.9647Z" fill="#C41230"></path>
    <path d="M106.882 14.3971H103.266V11.0138H106.882V8.7406C106.882 5.75617 107.699 3.48295 109.172 2.02064C110.498 0.704565 112.433 0 114.824 0C116.658 0 117.877 0.199405 119.149 0.658037V4.04128C117.723 3.63582 116.652 3.38324 115.332 3.38324C112.279 3.38324 110.752 5.20448 110.752 8.94V11.0603H119.102V14.3971H110.806V37.0827H106.889V14.3971H106.882Z" fill="#B6B8BA"></path>
    <path d="M121.901 10.9678H125.818V37.0899H121.901V10.9678Z" fill="#B6B8BA"></path>
    <path d="M132.233 30.1632V14.3969H128.571V10.9605H132.233V3.08398H136.15V10.9671H144.5V14.4036H136.15V29.6647C136.15 32.8485 137.932 34.0117 140.577 34.0117C141.902 34.0117 143.021 33.7592 144.393 33.1011V36.4378C143.021 37.1424 141.541 37.5479 139.659 37.5479C135.434 37.5479 132.227 35.474 132.227 30.1699L132.233 30.1632Z" fill="#B6B8BA"></path>
    <path d="M126.287 3.39696C126.287 4.71303 125.209 5.78318 123.883 5.78318C122.558 5.78318 121.479 4.71303 121.479 3.39696C121.479 2.08088 122.558 1.01074 123.883 1.01074C125.209 1.01074 126.287 2.08088 126.287 3.39696Z" fill="#B6B8BA"></path>
    <path d="M147.172 11.4787H146.302V11.04H148.498V11.4787H147.627V14.3834H147.172V11.4787ZM149.127 11.04H149.623L150.567 12.7682L151.511 11.04H151.993V14.3834H151.551V11.8244L150.58 13.6057H150.527L149.556 11.8244V14.3834H149.114V11.04H149.127Z" fill="#B6B8BA"></path>
  </g>
  <defs>
    <clipPath id="clip0_293_524">
      <rect width="152" height="38" fill="white"></rect>
    </clipPath>
  </defs>
</svg>
